# xmcd CD database file
#
# Track frame offsets:
#	182
#	15445
#	30282
#	47445
#	58645
#	71345
#	90062
#	103132
#	121107
#	135532
#	149295
#
# Disc length: 2169 seconds
#
# Revision: 0
# Processed by: cddbd v1.4PL0 Copyright (c) Steve Scherf et al.
# Submitted via: CDex 1.40Beta8
#
DISCID=7c08770b
DTITLE=Johnny Cash - Boom Chicka Boom (European Version)
DYEAR=1990
DGENRE=Country
TTITLE0=A backstage pass
TTITLE1=Cats in the cradle
TTITLE2=Farmer's Almanac
TTITLE3=Don't go near the water
TTITLE4=Family Bible
TTITLE5=Harley
TTITLE6=I love you, I love you
TTITLE7=Hidden Shame
TTITLE8=Monteagle Mountain
TTITLE9=That's one you owe me
TTITLE10=Veteran's Day
EXTD=YEAR: 1990 ID3G: 2
EXTT0=
EXTT1=
EXTT2=
EXTT3=
EXTT4=
EXTT5=
EXTT6=
EXTT7=
EXTT8=
EXTT9=
EXTT10=
PLAYORDER=
